<svg xmlns="http://www.w3.org/2000/svg" xmlns:xlink="http://www.w3.org/1999/xlink" width="28.061" height="20.669" viewBox="0 0 28.061 20.669">
  <defs>
    <clipPath id="clip-path">
      <rect id="사각형_240" data-name="사각형 240" width="28.061" height="20.669" fill="none"/>
    </clipPath>
  </defs>
  <g id="그룹_111" data-name="그룹 111" transform="translate(0)">
    <g id="그룹_110" data-name="그룹 110" transform="translate(0 0)" clip-path="url(#clip-path)">
      <path id="패스_80" data-name="패스 80" d="M25.239,3.37a.582.582,0,0,1,.581.581V14.186a.582.582,0,0,1-.581.581H17.6l-.557.613L14.6,18.069,12.152,15.38l-.557-.613H3.951a.582.582,0,0,1-.581-.581V3.951a.582.582,0,0,1,.581-.581Zm0-1.87H3.951A2.451,2.451,0,0,0,1.5,3.951V14.186a2.451,2.451,0,0,0,2.451,2.451h6.816l2.99,3.291a1.132,1.132,0,0,0,1.676,0l2.99-3.291h6.816a2.451,2.451,0,0,0,2.451-2.451V3.951A2.451,2.451,0,0,0,25.239,1.5" transform="translate(-0.565 -0.565)" fill="#ff8900"/>
      <path id="패스_81" data-name="패스 81" d="M9.818,14.208a1.961,1.961,0,1,1,1.96-1.961,1.96,1.96,0,0,1-1.96,1.961" transform="translate(-2.959 -3.874)" fill="#ff8900"/>
      <path id="패스_82" data-name="패스 82" d="M21.322,14.208a1.961,1.961,0,1,1,1.96-1.961,1.96,1.96,0,0,1-1.96,1.961" transform="translate(-7.291 -3.874)" fill="#ff8900"/>
      <path id="패스_83" data-name="패스 83" d="M32.825,14.208a1.961,1.961,0,1,1,1.961-1.961,1.961,1.961,0,0,1-1.961,1.961" transform="translate(-11.623 -3.874)" fill="#ff8900"/>
    </g>
  </g>
</svg>
