<svg xmlns="http://www.w3.org/2000/svg" xmlns:xlink="http://www.w3.org/1999/xlink" width="26.477" height="21.4" viewBox="0 0 26.477 21.4">
  <defs>
    <clipPath id="clip-path">
      <rect id="사각형_344" data-name="사각형 344" width="26.477" height="21.4" fill="none"/>
    </clipPath>
  </defs>
  <g id="그룹_212" data-name="그룹 212" transform="translate(0 0)">
    <g id="그룹_211" data-name="그룹 211" transform="translate(0 0)" clip-path="url(#clip-path)">
      <path id="패스_140" data-name="패스 140" d="M24.194,2.236h0a2.69,2.69,0,0,1,.5.047c2.889.547,4.063,5.365,3.309,9.346-.686,3.624-3.174,7.536-6,7.536a2.755,2.755,0,0,1-.5-.047c-2.889-.548-4.063-5.365-3.309-9.346.686-3.624,3.174-7.536,6-7.536m0-2.236C20.573,0,17.025,3.95,16,9.355c-1.11,5.862,1.169,11.216,5.09,11.959a4.9,4.9,0,0,0,.917.086c3.621,0,7.169-3.95,8.193-9.356C31.311,6.182,29.033.829,25.111.086A4.963,4.963,0,0,0,24.194,0" transform="translate(-4.005 0)" fill="#ff8900"/>
      <path id="패스_141" data-name="패스 141" d="M6.67,20.664A3.769,3.769,0,0,1,5.96,20.6a5.211,5.211,0,0,1-3.611-3.4,12.735,12.735,0,0,1-.588-7.254C2.657,5.21,5.774,1.5,8.855,1.5a3.775,3.775,0,0,1,.709.066,5.208,5.208,0,0,1,3.611,3.4,12.732,12.732,0,0,1,.589,7.253c-.9,4.735-4.013,8.445-7.095,8.445" transform="translate(-0.381 -0.382)" fill="#fff"/>
      <path id="패스_142" data-name="패스 142" d="M8.474,2.236h0a2.69,2.69,0,0,1,.5.047c2.889.547,4.063,5.365,3.309,9.346-.686,3.624-3.174,7.536-6,7.536a2.755,2.755,0,0,1-.5-.047C2.9,18.57,1.724,13.752,2.478,9.771c.686-3.624,3.174-7.536,6-7.536M8.474,0C4.853,0,1.3,3.95.281,9.355c-1.11,5.862,1.169,11.216,5.09,11.959a4.9,4.9,0,0,0,.917.086c3.621,0,7.169-3.95,8.193-9.356C15.592,6.182,13.313.829,9.391.086A4.963,4.963,0,0,0,8.474,0" transform="translate(0 0)" fill="#ff8900"/>
      <path id="패스_143" data-name="패스 143" d="M11.614,12.964c0,1.133-.649,2.052-1.449,2.052S8.715,14.1,8.715,12.964s.649-2.052,1.449-2.052,1.449.918,1.449,2.052" transform="translate(-2.22 -2.78)" fill="#ff8900"/>
      <path id="패스_144" data-name="패스 144" d="M27.345,12.964c0,1.133-.649,2.052-1.449,2.052s-1.449-.918-1.449-2.052.649-2.052,1.449-2.052,1.449.918,1.449,2.052" transform="translate(-6.228 -2.78)" fill="#ff8900"/>
    </g>
  </g>
</svg>
