<svg xmlns="http://www.w3.org/2000/svg" xmlns:xlink="http://www.w3.org/1999/xlink" width="26.062" height="21.065" viewBox="0 0 26.062 21.065">
  <defs>
    <clipPath id="clip-path">
      <rect id="사각형_286" data-name="사각형 286" width="26.062" height="21.065" fill="none"/>
    </clipPath>
  </defs>
  <g id="그룹_159" data-name="그룹 159" transform="translate(0 0)">
    <g id="그룹_158" data-name="그룹 158" transform="translate(0 0)" clip-path="url(#clip-path)">
      <path id="패스_119" data-name="패스 119" d="M22.309,20.363a3.71,3.71,0,0,1-.7-.065,5.129,5.129,0,0,1-3.555-3.345,12.542,12.542,0,0,1-.58-7.14C18.359,5.152,21.427,1.5,24.46,1.5a3.716,3.716,0,0,1,.7.065,5.126,5.126,0,0,1,3.554,3.346,12.532,12.532,0,0,1,.58,7.14c-.883,4.661-3.95,8.313-6.983,8.313" transform="translate(-4.587 -0.399)" fill="#ff8900"/>
      <path id="패스_120" data-name="패스 120" d="M24.061,2.2h0a2.648,2.648,0,0,1,.494.046c2.844.538,4,5.281,3.257,9.2-.676,3.567-3.124,7.418-5.9,7.418a2.711,2.711,0,0,1-.494-.046c-2.844-.539-4-5.281-3.257-9.2.676-3.567,3.124-7.418,5.9-7.418m0-2.2C20.5,0,17,3.888,16,9.208c-1.093,5.77,1.15,11.041,5.01,11.771a4.824,4.824,0,0,0,.9.085c3.564,0,7.057-3.888,8.065-9.209,1.092-5.77-1.15-11.04-5.01-11.771a4.886,4.886,0,0,0-.9-.084" transform="translate(-4.189 0)" fill="#ff8900"/>
      <path id="패스_121" data-name="패스 121" d="M6.589,20.363a3.71,3.71,0,0,1-.7-.065,5.129,5.129,0,0,1-3.555-3.345,12.542,12.542,0,0,1-.58-7.14C2.639,5.152,5.707,1.5,8.739,1.5a3.716,3.716,0,0,1,.7.065,5.125,5.125,0,0,1,3.554,3.346,12.526,12.526,0,0,1,.58,7.14c-.884,4.661-3.951,8.313-6.983,8.313" transform="translate(-0.399 -0.399)" fill="#ff8900"/>
      <path id="패스_122" data-name="패스 122" d="M8.341,2.2h0a2.648,2.648,0,0,1,.494.046c2.844.538,4,5.281,3.257,9.2-.676,3.567-3.124,7.418-5.9,7.418a2.711,2.711,0,0,1-.494-.046c-2.844-.539-4-5.281-3.257-9.2C3.115,6.051,5.563,2.2,8.341,2.2m0-2.2C4.777,0,1.284,3.888.277,9.208c-1.093,5.77,1.15,11.041,5.01,11.771a4.824,4.824,0,0,0,.9.085c3.564,0,7.057-3.888,8.065-9.209C15.347,6.086,13.1.816,9.244.084A4.886,4.886,0,0,0,8.341,0" transform="translate(0 0)" fill="#ff8900"/>
      <path id="패스_123" data-name="패스 123" d="M15.141,7.627c0,1.744-1,3.156-2.229,3.156s-2.23-1.413-2.23-3.156,1-3.156,2.23-3.156,2.229,1.413,2.229,3.156" transform="translate(-2.846 -1.191)" fill="#fff"/>
      <path id="패스_124" data-name="패스 124" d="M31.359,7.627c0,1.744-1,3.156-2.229,3.156S26.9,9.371,26.9,7.627s1-3.156,2.23-3.156,2.229,1.413,2.229,3.156" transform="translate(-7.167 -1.191)" fill="#fff"/>
    </g>
  </g>
</svg>
