<svg xmlns="http://www.w3.org/2000/svg" xmlns:xlink="http://www.w3.org/1999/xlink" width="22.757" height="21.988" viewBox="0 0 22.757 21.988">
  <defs>
    <clipPath id="clip-path">
      <rect id="사각형_243" data-name="사각형 243" width="22.757" height="21.988" fill="none"/>
    </clipPath>
  </defs>
  <g id="그룹_117" data-name="그룹 117" transform="translate(0)">
    <g id="그룹_116" data-name="그룹 116" transform="translate(0 0)" clip-path="url(#clip-path)">
      <path id="패스_87" data-name="패스 87" d="M11.378,2.173Q13.013,3.8,14.645,5.437q3.026,3.026,6.06,6.045a.988.988,0,0,1,.177.208.386.386,0,0,1,0,.08c-.023,1.9-.021,3.82-.018,5.68q0,1.331,0,2.661c-.665,0-1.489.007-2.322.007-.891,0-1.792,0-2.518-.007V18.29c0-1.65,0-3.3,0-4.951-.011-2.592-1.38-3.974-3.958-4l-.279,0a1.774,1.774,0,0,1,.8.222,2.857,2.857,0,0,0-1.211-.231,2.857,2.857,0,0,0-1.211.231,1.774,1.774,0,0,1,.8-.222l-.279,0c-2.578.026-3.947,1.409-3.958,4-.007,1.648-.006,3.3,0,4.944V20.11c-.726,0-1.627.007-2.518.007-.829,0-1.65,0-2.322-.007q0-1.331,0-2.661c0-1.86,0-3.782-.018-5.68a.411.411,0,0,1,0-.079.95.95,0,0,1,.178-.21q3.037-3.015,6.06-6.045,1.633-1.632,3.267-3.264m0-2.173a1.115,1.115,0,0,0-.746.286c-.064.057-.126.116-.187.176Q5.588,5.306.735,10.154A2.112,2.112,0,0,0,0,11.793c.037,2.978.009,5.956.018,8.935C0,21.605.333,21.974,1.2,21.974c.724.009,1.857.014,3,.014,1.244,0,2.509,0,3.294-.014.1,0,.17,0,.247,0h.024a.827.827,0,0,0,.824-.824v-.76c0-2.349-.009-4.7,0-7.047.007-1.574.545-2.123,2.107-2.138.813-.008-.141-.012.672-.012s-.141,0,.672.012c1.561.016,2.1.564,2.107,2.138.011,2.349,0,4.7,0,7.047v.76a.827.827,0,0,0,.824.824h.024c.077,0,.15,0,.247,0,.786.009,2.05.014,3.294.014,1.148,0,2.28,0,3-.014.872,0,1.2-.369,1.186-1.246.009-2.979-.019-5.957.018-8.935a2.112,2.112,0,0,0-.735-1.64Q17.153,5.322,12.312.462c-.061-.06-.123-.119-.187-.176A1.115,1.115,0,0,0,11.378,0" transform="translate(0 0)" fill="#ff8900"/>
    </g>
  </g>
</svg>
