<svg xmlns="http://www.w3.org/2000/svg" xmlns:xlink="http://www.w3.org/1999/xlink" width="21.244" height="20.526" viewBox="0 0 21.244 20.526">
  <defs>
    <clipPath id="clip-path">
      <rect id="사각형_3" data-name="사각형 3" width="21.244" height="20.526" fill="none"/>
    </clipPath>
  </defs>
  <g id="그룹_72" data-name="그룹 72" transform="translate(-35.378 -779.993)">
    <g id="그룹_3" data-name="그룹 3" transform="translate(35.378 779.993)">
      <g id="그룹_2" data-name="그룹 2" transform="translate(0 0)" clip-path="url(#clip-path)">
        <path id="패스_1" data-name="패스 1" d="M21.244,11.009a1.971,1.971,0,0,0-.686-1.53C17.527,6.472,14.516,3.446,11.493.431q-.085-.085-.175-.165a1.043,1.043,0,0,0-1.393,0c-.059.054-.118.108-.174.165C6.728,3.446,3.716,6.472.686,9.479A1.97,1.97,0,0,0,0,11.009c.034,2.78.008,5.56.017,8.34C0,20.169.31,20.513,1.124,20.513c1.41.018,2.82.015,4.23,0,.1,0,.173,0,.253,0a.772.772,0,0,0,.768-.769v-.71c0-2.193-.008-4.386,0-6.578.007-1.469.509-1.981,1.967-2q1.138-.011,2.277-.011t2.277.011c1.457.015,1.96.527,1.967,2,.01,2.193,0,4.386,0,6.578v.71a.772.772,0,0,0,.769.769c.08,0,.153,0,.253,0,1.41.015,2.821.018,4.231,0,.813,0,1.124-.344,1.107-1.164.009-2.78-.017-5.56.017-8.34" transform="translate(0 0)" fill="#ff8a00"/>
      </g>
    </g>
  </g>
</svg>
