<svg id="그룹_113" data-name="그룹 113" xmlns="http://www.w3.org/2000/svg" xmlns:xlink="http://www.w3.org/1999/xlink" width="22.536" height="22.536" viewBox="0 0 22.536 22.536">
  <defs>
    <clipPath id="clip-path">
      <rect id="사각형_241" data-name="사각형 241" width="22.536" height="22.536" fill="none"/>
    </clipPath>
  </defs>
  <g id="그룹_112" data-name="그룹 112" transform="translate(0 0)" clip-path="url(#clip-path)">
    <path id="패스_84" data-name="패스 84" d="M17.789,3.37A2.509,2.509,0,0,1,20.3,5.876V17.789A2.509,2.509,0,0,1,17.789,20.3H5.876A2.509,2.509,0,0,1,3.37,17.789V5.876A2.509,2.509,0,0,1,5.876,3.37Zm0-1.87H5.876A4.376,4.376,0,0,0,1.5,5.876V17.789a4.376,4.376,0,0,0,4.376,4.376H17.789a4.376,4.376,0,0,0,4.376-4.376V5.876A4.376,4.376,0,0,0,17.789,1.5" transform="translate(-0.565 -0.565)" fill="#ff8900"/>
    <path id="패스_85" data-name="패스 85" d="M20.464,15.475H15.475v4.989H13.383V15.475H8.393V13.383h4.99V8.393h2.092v4.989h4.989Z" transform="translate(-3.161 -3.161)" fill="#ff8900"/>
  </g>
</svg>
