<?xml version="1.0" encoding="utf-8"?>
<!-- Generator: Adobe Illustrator 26.1.0, SVG Export Plug-In . SVG Version: 6.00 Build 0)  -->
<svg version="1.1" id="레이어_1" xmlns="http://www.w3.org/2000/svg" xmlns:xlink="http://www.w3.org/1999/xlink" x="0px"
	 y="0px" viewBox="0 0 50 50" style="enable-background:new 0 0 50 50;" xml:space="preserve">
<style type="text/css">
	.st0{clip-path:url(#SVGID_00000149359307897983246710000012117650028722432662_);}
	.st1{fill:#FF8A00;}
	.st2{enable-background:new    ;}
	.st3{fill:none;}
</style>
<g id="그룹_73" transform="translate(-96 -772)">
	<g id="그룹_5" transform="translate(113.704 779.855)">
		<g>
			<defs>
				<rect id="SVGID_1_" x="0" y="0" width="14.6" height="21.9"/>
			</defs>
			<clipPath id="SVGID_00000131359972878057777410000011042694231367633303_">
				<use xlink:href="#SVGID_1_"  style="overflow:visible;"/>
			</clipPath>
			
				<g id="그룹_4" transform="translate(0 0)" style="clip-path:url(#SVGID_00000131359972878057777410000011042694231367633303_);">
				<path id="패스_2" class="st1" d="M0,1.6v18.6c0,0.9,0.7,1.6,1.6,1.6c0.3,0,0.6-0.1,0.9-0.3l4-2.7c0.5-0.3,1.1-0.3,1.6,0l4,2.7
					c0.7,0.5,1.8,0.3,2.3-0.4c0.2-0.3,0.3-0.6,0.3-0.9V1.6C14.6,0.7,13.9,0,13,0H1.6C0.7,0,0,0.7,0,1.6C0,1.6,0,1.6,0,1.6"/>
			</g>
		</g>
	</g>
	<g class="st2">
		<path d="M109,807.3v2.5h-1.8v1.5c0.8,0,1.5,0,2.4-0.2l0.1,0.6c-1,0.2-1.8,0.2-2.6,0.2h-0.5v-2.7h1.8v-1.3h-1.8v-0.6H109z
			 M109.3,809.1h0.8v-2.3h0.7v6.5h-0.7v-3.6h-0.8V809.1z M111.6,806.6h0.7v7.1h-0.7V806.6z"/>
		<path d="M115.8,807.2v1.2c0,1.3,0.8,2.6,1.8,3.1l-0.4,0.6c-0.8-0.4-1.4-1.2-1.8-2.2c-0.3,1-1,1.9-1.8,2.3l-0.4-0.6
			c1.1-0.5,1.9-1.9,1.9-3.2v-1.2H115.8z M118.3,806.5h0.7v7.1h-0.7V806.5z"/>
		<path d="M121.2,811.3v-3.4h-0.8v-0.6h4v0.6h-0.7v3.3c0.4,0,0.7-0.1,1.1-0.1l0,0.5c-1.5,0.2-3.2,0.3-4.5,0.3l-0.1-0.6H121.2z
			 M123,811.2v-3.4h-1.1v3.4C122.2,811.3,122.6,811.3,123,811.2z M126.1,806.6v7.1h-0.7v-7.1H126.1z"/>
		<path d="M132,806.9v0.2c0,0.4,0,1.2-0.3,2.3h2.1c0.2-0.8,0.2-1.5,0.3-1.9h-1.5v-0.6h2.3v0.3c0,0.5,0,1.2-0.2,2.2h1v0.6h-2.8v1.2h2
			v2.4h-0.7v-1.8h-4.1v-0.6h2.1V810h-2.8v-0.6h1.9c0.2-0.8,0.3-1.5,0.3-1.9h-1.6v-0.6H132z"/>
	</g>
	<rect id="사각형_174" x="96" y="772" class="st3" width="50" height="50"/>
</g>
</svg>
