<?xml version="1.0" encoding="utf-8"?>
<!-- Generator: Adobe Illustrator 26.1.0, SVG Export Plug-In . SVG Version: 6.00 Build 0)  -->
<svg version="1.1" id="레이어_1" xmlns="http://www.w3.org/2000/svg" xmlns:xlink="http://www.w3.org/1999/xlink" x="0px"
	 y="0px" viewBox="0 0 50 50" style="enable-background:new 0 0 50 50;" xml:space="preserve">
<style type="text/css">
	.st0{clip-path:url(#SVGID_00000093172455568481726260000011764600686022973885_);}
	.st1{fill:#FF8A00;}
	.st2{enable-background:new    ;}
	.st3{fill:none;}
</style>
<g id="그룹_74" transform="translate(-170 -772)">
	<g id="그룹_7" transform="translate(185 781.16)">
		<g>
			<defs>
				<rect id="SVGID_1_" y="0" width="19.3" height="19.3"/>
			</defs>
			<clipPath id="SVGID_00000031204314165254743340000005800283965932490929_">
				<use xlink:href="#SVGID_1_"  style="overflow:visible;"/>
			</clipPath>
			
				<g id="그룹_6" transform="translate(0 0)" style="clip-path:url(#SVGID_00000031204314165254743340000005800283965932490929_);">
				<path id="패스_3" class="st1" d="M15.2,0H4.1C1.8,0,0,1.8,0,4.1v11.1c0,2.3,1.8,4.1,4.1,4.1h11.1c2.3,0,4.1-1.8,4.1-4.1V4.1
					C19.3,1.8,17.5,0,15.2,0 M15.3,10.6h-4.7v4.7h-2v-4.7H4v-2h4.7V4h2v4.7h4.7L15.3,10.6z"/>
			</g>
		</g>
	</g>
	<g class="st2">
		<path d="M181.3,809.8h2.6v-1.3h0.7v1.3h3.1v0.6h-6.4V809.8z M186.9,812.3c0,0.8-1,1.3-2.5,1.3s-2.5-0.5-2.5-1.3s1-1.3,2.5-1.3
			S186.9,811.5,186.9,812.3z M182,806.9h4.8v0.6c0,0.6,0,1.1-0.2,1.9l-0.7-0.1c0.2-0.7,0.2-1.2,0.2-1.8v0H182V806.9z M184.5,813
			c1.1,0,1.7-0.3,1.7-0.7s-0.7-0.7-1.7-0.7s-1.7,0.3-1.7,0.7S183.4,813,184.5,813z"/>
		<path d="M194.7,810.6v0.6h-1.6v2.5h-0.7v-2.5h-1.7v2.5h-0.8v-2.5h-1.6v-0.6H194.7z M191.5,806.8c1.5,0,2.5,0.6,2.5,1.5
			c0,1-1,1.5-2.5,1.5c-1.5,0-2.5-0.6-2.5-1.5C189,807.4,190,806.8,191.5,806.8z M191.5,809.3c1,0,1.7-0.4,1.7-1c0-0.6-0.7-1-1.7-1
			c-1,0-1.7,0.4-1.7,1C189.7,809,190.4,809.3,191.5,809.3z"/>
		<path d="M195.2,807.7h1.7v-1h0.7v1h1.7v0.6h-4.2V807.7z M197.3,808.8c1,0,1.7,0.7,1.7,1.6c0,1-0.7,1.6-1.7,1.6
			c-1,0-1.7-0.7-1.7-1.6C195.6,809.5,196.4,808.8,197.3,808.8z M197.3,811.5c0.6,0,1-0.4,1-1c0-0.6-0.4-1-1-1s-1,0.4-1,1
			C196.3,811,196.7,811.5,197.3,811.5z M200.7,806.6v2.9h1.1v0.6h-1.1v3.6H200v-7.1H200.7z"/>
		<path d="M205.3,807.9h-2.6v-0.6h3.3c0,2.1-0.9,3.9-3.3,5l-0.4-0.6C204.2,810.8,205.1,809.6,205.3,807.9z M208.1,806.6v7.1h-0.7
			v-7.1H208.1z"/>
	</g>
	<rect id="사각형_175" x="170" y="772" class="st3" width="50" height="50"/>
</g>
</svg>
