<?xml version="1.0" encoding="utf-8"?>
<!-- Generator: Adobe Illustrator 26.1.0, SVG Export Plug-In . SVG Version: 6.00 Build 0)  -->
<svg version="1.1" id="레이어_1" xmlns="http://www.w3.org/2000/svg" xmlns:xlink="http://www.w3.org/1999/xlink" x="0px"
	 y="0px" viewBox="0 0 50 50" style="enable-background:new 0 0 50 50;" xml:space="preserve">
<style type="text/css">
	.st0{clip-path:url(#SVGID_00000116925955788472556280000018335972113661916575_);}
	.st1{fill:#FF8A00;}
	.st2{enable-background:new    ;}
	.st3{fill:none;}
</style>
<g id="그룹_75" transform="translate(-245 -772)">
	<g id="그룹_9" transform="translate(257.775 782.032)">
		<g>
			<defs>
				<rect id="SVGID_1_" x="0" y="0" width="24.4" height="17.5"/>
			</defs>
			<clipPath id="SVGID_00000072971241267789040860000004051571234625090176_">
				<use xlink:href="#SVGID_1_"  style="overflow:visible;"/>
			</clipPath>
			
				<g id="그룹_8" transform="translate(0 0)" style="clip-path:url(#SVGID_00000072971241267789040860000004051571234625090176_);">
				<path id="패스_4" class="st1" d="M22.2,0H2.3C1,0,0,1,0,2.3v9.6c0,1.3,1,2.3,2.3,2.3h6.4l2.8,3.1c0.4,0.4,1.1,0.5,1.5,0.1
					c0,0,0,0,0.1-0.1l2.8-3.1h6.4c1.3,0,2.3-1,2.3-2.3l0,0V2.3C24.4,1,23.4,0,22.2,0 M5.5,8.9c-1,0-1.8-0.8-1.8-1.8s0.8-1.8,1.8-1.8
					s1.8,0.8,1.8,1.8l0,0C7.4,8.1,6.5,8.9,5.5,8.9 M12.2,8.9c-1,0-1.8-0.8-1.8-1.8s0.8-1.8,1.8-1.8s1.8,0.8,1.8,1.8l0,0
					C14.1,8.1,13.2,8.9,12.2,8.9 M18.9,8.9c-1,0-1.8-0.8-1.8-1.8s0.8-1.8,1.8-1.8s1.8,0.8,1.8,1.8l0,0C20.8,8.1,19.9,8.9,18.9,8.9"
					/>
			</g>
		</g>
	</g>
	<g class="st2">
		<path d="M264.7,807.9v-1h0.7v1h1.3v0.6h-1.3v0.3c0,1.1,0.5,2.2,1.5,2.8l-0.4,0.6c-0.7-0.4-1.2-1.1-1.4-1.9c-0.2,0.9-0.7,1.6-1.4,2
			l-0.4-0.6c1-0.6,1.5-1.8,1.5-2.9v-0.3h-1.3v-0.6H264.7z M267.1,806.7h0.7v2.7h0.8v-2.8h0.7v7.1h-0.7V810h-0.8v3.3h-0.7V806.7z"/>
		<path d="M274,807.1v0.6h-2.6v0.8h2.4v0.6h-2.4v0.8c1.4,0,2.2,0,3.2-0.2l0.1,0.6c-1,0.2-1.9,0.2-3.4,0.2h-0.6v-3.4H274z M273.7,811
			c1.5,0,2.4,0.5,2.4,1.3c0,0.8-0.9,1.3-2.4,1.3c-1.5,0-2.4-0.5-2.4-1.3C271.4,811.5,272.3,811,273.7,811z M273.7,813
			c1,0,1.6-0.3,1.6-0.7s-0.6-0.7-1.6-0.7c-1,0-1.6,0.3-1.6,0.7S272.7,813,273.7,813z M275.3,806.6h0.7v4.3h-0.7V806.6z"/>
	</g>
	<rect id="사각형_176" x="245" y="772" class="st3" width="50" height="50"/>
</g>
</svg>
