<?xml version="1.0" encoding="utf-8"?>
<!-- Generator: Adobe Illustrator 26.1.0, SVG Export Plug-In . SVG Version: 6.00 Build 0)  -->
<svg version="1.1" id="레이어_1" xmlns="http://www.w3.org/2000/svg" xmlns:xlink="http://www.w3.org/1999/xlink" x="0px"
	 y="0px" viewBox="0 0 50 50" style="enable-background:new 0 0 50 50;" xml:space="preserve">
<style type="text/css">
	.st0{clip-path:url(#SVGID_00000132798949371692274890000015163932760022219454_);}
	.st1{fill:#FF8A00;}
	.st2{enable-background:new    ;}
	.st3{fill:none;}
</style>
<g id="그룹_76" transform="translate(-318 -772)">
	<g id="그룹_11" transform="translate(332 778.813)">
		<g>
			<defs>
				<rect id="SVGID_1_" y="0" width="24" height="23.2"/>
			</defs>
			<clipPath id="SVGID_00000127754249076500087170000016529297299499848637_">
				<use xlink:href="#SVGID_1_"  style="overflow:visible;"/>
			</clipPath>
			
				<g id="그룹_10" transform="translate(0 0)" style="clip-path:url(#SVGID_00000127754249076500087170000016529297299499848637_);">
				<path id="패스_5" class="st1" d="M17.6,13.6H6.4C2.8,13.6,0,16.4,0,20V21c0,1.2,1,2.2,2.2,2.2c0,0,0,0,0,0h19.7
					c1.2,0,2.2-1,2.2-2.2V20C24,16.4,21.2,13.6,17.6,13.6"/>
				<path id="패스_6" class="st1" d="M18,6c0,3.3-2.7,6-6,6S6,9.3,6,6s2.7-6,6-6S18,2.7,18,6"/>
			</g>
		</g>
	</g>
	<g class="st2">
		<path d="M329.6,807.2h0.7v4c1,0,2-0.1,3.1-0.3l0.1,0.6c-1.2,0.2-2.3,0.3-3.4,0.3h-0.6V807.2z M334.7,806.5v2.8h1.1v0.6h-1.1v3.7
			H334v-7.1H334.7z"/>
		<path d="M340.9,811.3l0.1,0.5c-1.6,0.3-3.3,0.3-4.5,0.3l-0.1-0.6C337.6,811.5,339.4,811.5,340.9,811.3z M340.5,808.7
			c0,1-0.8,1.7-1.9,1.7c-1.1,0-1.9-0.7-1.9-1.7c0-1,0.8-1.7,1.9-1.7C339.7,807.1,340.5,807.8,340.5,808.7z M338.6,809.8
			c0.7,0,1.2-0.4,1.2-1c0-0.6-0.5-1-1.2-1c-0.7,0-1.2,0.4-1.2,1C337.4,809.4,337.9,809.8,338.6,809.8z M341.3,806.5h0.7v7.1h-0.7
			V806.5z"/>
		<path d="M350.7,806.8v0.6c0,0.6,0,1.3-0.2,2.3h1v0.6h-2.8v1h2.1v2.3H350v-1.7h-4.2v-0.6h2.2v-1h-2.8v-0.6h4.7
			c0.1-0.4,0.1-0.7,0.2-1l-4.1,0.2l-0.1-0.6l4.2-0.1c0-0.3,0-0.5,0-0.7h-4.1v-0.6H350.7z"/>
		<path d="M355,806.9v0.2c0,0.4,0,1.2-0.3,2.3h2.1c0.2-0.8,0.2-1.5,0.3-1.9h-1.5v-0.6h2.3v0.3c0,0.5,0,1.2-0.2,2.2h1v0.6h-2.8v1.2h2
			v2.4h-0.7v-1.8h-4.1v-0.6h2.1V810h-2.8v-0.6h1.9c0.2-0.8,0.3-1.5,0.3-1.9h-1.6v-0.6H355z"/>
	</g>
	<rect id="사각형_177" x="318" y="772" class="st3" width="50" height="50"/>
</g>
</svg>
