<?xml version="1.0" encoding="utf-8"?>
<!-- Generator: Adobe Illustrator 26.1.0, SVG Export Plug-In . SVG Version: 6.00 Build 0)  -->
<svg version="1.1" id="레이어_1" xmlns="http://www.w3.org/2000/svg" xmlns:xlink="http://www.w3.org/1999/xlink" x="0px"
	 y="0px" viewBox="0 0 50 50" style="enable-background:new 0 0 50 50;" xml:space="preserve">
<style type="text/css">
	.st0{clip-path:url(#SVGID_00000105398538883999306660000016741864978322501293_);}
	.st1{fill:#FF8A00;}
	.st2{enable-background:new    ;}
	.st3{fill:none;}
</style>
<g id="그룹_72" transform="translate(-21 -772)">
	<g id="그룹_3" transform="translate(35.378 779.993)">
		<g>
			<defs>
				<rect id="SVGID_1_" x="0" y="0" width="21.2" height="20.5"/>
			</defs>
			<clipPath id="SVGID_00000034072168037357291010000003598997156124040333_">
				<use xlink:href="#SVGID_1_"  style="overflow:visible;"/>
			</clipPath>
			
				<g id="그룹_2" transform="translate(0 0)" style="clip-path:url(#SVGID_00000034072168037357291010000003598997156124040333_);">
				<path id="패스_1" class="st1" d="M21.2,11c0-0.6-0.2-1.1-0.7-1.5c-3-3-6-6-9.1-9c-0.1-0.1-0.1-0.1-0.2-0.2
					c-0.4-0.4-1-0.4-1.4,0C9.9,0.3,9.8,0.4,9.8,0.4c-3,3-6,6-9.1,9C0.2,9.9,0,10.4,0,11c0,2.8,0,5.6,0,8.3c0,0.8,0.3,1.2,1.1,1.2
					c1.4,0,2.8,0,4.2,0c0.1,0,0.2,0,0.3,0c0.4,0,0.8-0.3,0.8-0.8V19c0-2.2,0-4.4,0-6.6c0-1.5,0.5-2,2-2c0.8,0,1.5,0,2.3,0
					s1.5,0,2.3,0c1.5,0,2,0.5,2,2c0,2.2,0,4.4,0,6.6v0.7c0,0.4,0.3,0.8,0.8,0.8c0.1,0,0.2,0,0.3,0c1.4,0,2.8,0,4.2,0
					c0.8,0,1.1-0.3,1.1-1.2C21.2,16.6,21.2,13.8,21.2,11"/>
			</g>
		</g>
	</g>
	<g class="st2">
		<path d="M43.3,810.4h2.8v-0.5c-1.2-0.1-1.9-0.4-1.9-1c0-0.7,0.8-1,2.3-1s2.3,0.3,2.3,1c0,0.6-0.7,0.9-1.9,1v0.5h2.8v0.6h-6.4
			V810.4z M43.6,807.1h2.5v-0.6h0.7v0.6h2.5v0.6h-5.7V807.1z M48.9,811.5v2h-4.8v-2H48.9z M48.2,813V812h-3.4v0.9H48.2z M46.5,809.4
			c1,0,1.5-0.2,1.5-0.5c0-0.3-0.5-0.5-1.5-0.5c-1,0-1.5,0.2-1.5,0.5C45,809.3,45.5,809.4,46.5,809.4z"/>
	</g>
	<rect id="사각형_173" x="21" y="772" class="st3" width="50" height="50"/>
</g>
</svg>
